<svg width="192" height="24" viewBox="0 0 192 24" fill="none" xmlns="http://www.w3.org/2000/svg">
<path d="M46.7175 20.3073C45.6237 20.3073 44.6605 20.0787 43.8279 19.6216C42.9953 19.1481 42.3422 18.4706 41.8688 17.589C41.3953 16.7074 41.1423 15.6299 41.1096 14.3565H41.5749V19.8665H38.4648V2.75488H42.383V11.075L41.4525 12.2505C41.5014 10.8954 41.7545 9.7608 42.2116 8.84656C42.6851 7.91598 43.3299 7.22214 44.1462 6.76501C44.9625 6.29157 45.8931 6.05484 46.9379 6.05484C47.8522 6.05484 48.6766 6.22626 49.4113 6.5691C50.1623 6.89562 50.799 7.36907 51.3214 7.98945C51.8438 8.5935 52.2438 9.31184 52.5214 10.1445C52.8152 10.9771 52.9622 11.8832 52.9622 12.8627V13.4015C52.9622 14.381 52.8152 15.2871 52.5214 16.1197C52.2438 16.9523 51.8275 17.687 51.2724 18.3237C50.7337 18.9441 50.0807 19.4338 49.3133 19.793C48.546 20.1359 47.6808 20.3073 46.7175 20.3073ZM45.689 17.0258C46.3584 17.0258 46.9379 16.8625 47.4277 16.536C47.9338 16.2095 48.3256 15.7524 48.6032 15.1646C48.8807 14.5606 49.0195 13.8831 49.0195 13.1321C49.0195 12.3648 48.8807 11.6954 48.6032 11.124C48.3256 10.5526 47.9338 10.1118 47.4277 9.80162C46.9379 9.4751 46.3584 9.31184 45.689 9.31184C45.1013 9.31184 44.5462 9.45061 44.0238 9.72815C43.5014 10.0057 43.0769 10.4057 42.7504 10.9281C42.4402 11.4342 42.2851 12.0546 42.2851 12.7892V13.6953C42.2851 14.3973 42.4483 15.0014 42.7749 15.5075C43.1177 15.9973 43.5503 16.3728 44.0728 16.634C44.5952 16.8952 45.1339 17.0258 45.689 17.0258Z" fill="#252C32"/>
<path d="M60.9975 20.3318C59.8221 20.3318 58.7772 20.1522 57.863 19.793C56.9487 19.4175 56.1732 18.9114 55.5365 18.2747C54.9162 17.638 54.4427 16.9115 54.1162 16.0952C53.7897 15.2626 53.6264 14.3892 53.6264 13.4749V12.9117C53.6264 11.9811 53.7897 11.0995 54.1162 10.2669C54.459 9.41796 54.9488 8.67513 55.5855 8.03843C56.2385 7.40172 57.0222 6.90378 57.9364 6.54462C58.8507 6.16912 59.871 5.98138 60.9975 5.98138C62.1567 5.98138 63.1852 6.16912 64.0831 6.54462C64.9973 6.90378 65.7728 7.40172 66.4095 8.03843C67.0462 8.67513 67.536 9.41796 67.8789 10.2669C68.2217 11.0995 68.3931 11.9811 68.3931 12.9117V13.4749C68.3931 14.3892 68.2299 15.2626 67.9033 16.0952C67.5768 16.9115 67.0952 17.638 66.4585 18.2747C65.8381 18.9114 65.0708 19.4175 64.1566 19.793C63.2423 20.1522 62.1893 20.3318 60.9975 20.3318ZM60.9975 17.0258C61.7648 17.0258 62.4015 16.8625 62.9076 16.536C63.4137 16.2095 63.7974 15.7524 64.0586 15.1646C64.3362 14.5769 64.4749 13.9239 64.4749 13.2055C64.4749 12.4382 64.3362 11.7689 64.0586 11.1975C63.7811 10.6097 63.3811 10.1445 62.8587 9.80162C62.3526 9.45877 61.7322 9.28735 60.9975 9.28735C60.2792 9.28735 59.6588 9.45877 59.1364 9.80162C58.614 10.1445 58.214 10.6097 57.9364 11.1975C57.6752 11.7689 57.5446 12.4382 57.5446 13.2055C57.5446 13.9239 57.6752 14.5769 57.9364 15.1646C58.1976 15.7524 58.5895 16.2095 59.1119 16.536C59.6343 16.8625 60.2629 17.0258 60.9975 17.0258Z" fill="#252C32"/>
<path d="M74.4336 20.2828C72.8826 20.2828 71.6909 19.7848 70.8582 18.789C70.0256 17.7768 69.6093 16.2585 69.6093 14.2341V6.44666H73.5275V14.43C73.5275 15.1483 73.7316 15.7197 74.1397 16.1442C74.5479 16.5687 75.0948 16.7809 75.7805 16.7809C76.4825 16.7809 77.0539 16.5605 77.4947 16.1197C77.9355 15.6789 78.1559 15.083 78.1559 14.332V6.44666H82.0741V19.8665H78.964V14.2096H79.2334C79.2334 15.5646 79.0538 16.6993 78.6946 17.6135C78.3518 18.5114 77.8375 19.1808 77.1518 19.6216C76.4662 20.0624 75.6172 20.2828 74.605 20.2828H74.4336Z" fill="#252C32"/>
<path d="M84.4625 19.8665V6.44666H87.5726V12.2015H87.3522C87.3522 10.8301 87.5236 9.68733 87.8664 8.77309C88.2256 7.85884 88.7643 7.17316 89.4827 6.71604C90.201 6.25891 91.0744 6.03035 92.103 6.03035H92.2744C93.8417 6.03035 95.0335 6.54462 95.8497 7.57314C96.6824 8.58534 97.0987 10.1281 97.0987 12.2015V19.8665H93.1805V11.9811C93.1805 11.2628 92.9682 10.675 92.5438 10.2179C92.1193 9.7608 91.5479 9.53224 90.8296 9.53224C90.0949 9.53224 89.499 9.76896 89.0419 10.2424C88.6011 10.6995 88.3807 11.3036 88.3807 12.0546V19.8665H84.4625Z" fill="#252C32"/>
<path d="M105.237 20.3318C104.078 20.3318 103.066 20.144 102.201 19.7685C101.352 19.3767 100.642 18.8543 100.07 18.2012C99.4988 17.5482 99.0743 16.8136 98.7968 15.9973C98.5193 15.1646 98.3805 14.3075 98.3805 13.4259V12.9607C98.3805 12.0464 98.5274 11.173 98.8213 10.3404C99.1152 9.49142 99.5478 8.74044 100.119 8.0874C100.691 7.43437 101.401 6.92011 102.25 6.54462C103.115 6.16912 104.103 5.98138 105.213 5.98138C106.421 5.98138 107.49 6.2181 108.421 6.69155C109.351 7.14867 110.094 7.79354 110.649 8.62616C111.204 9.45877 111.515 10.4138 111.58 11.4913H107.735C107.67 10.8873 107.425 10.3812 107.001 9.97304C106.592 9.54856 105.996 9.33633 105.213 9.33633C104.56 9.33633 104.013 9.49959 103.572 9.8261C103.148 10.1526 102.829 10.6016 102.617 11.173C102.405 11.7444 102.299 12.4219 102.299 13.2055C102.299 13.9239 102.397 14.5769 102.593 15.1646C102.788 15.736 103.099 16.185 103.523 16.5115C103.964 16.8217 104.535 16.9768 105.237 16.9768C105.76 16.9768 106.201 16.887 106.56 16.7074C106.935 16.5115 107.229 16.2503 107.441 15.9238C107.67 15.581 107.809 15.1891 107.858 14.7483H111.678C111.629 15.8585 111.319 16.838 110.747 17.687C110.176 18.5196 109.417 19.1726 108.47 19.6461C107.523 20.1032 106.445 20.3318 105.237 20.3318Z" fill="#252C32"/>
<path d="M119.106 20.3318C117.963 20.3318 116.951 20.1359 116.069 19.744C115.204 19.3522 114.478 18.8298 113.89 18.1768C113.318 17.5074 112.878 16.7646 112.567 15.9483C112.274 15.1157 112.127 14.2667 112.127 13.4015V12.9117C112.127 12.0138 112.274 11.1567 112.567 10.3404C112.878 9.50775 113.318 8.76493 113.89 8.11189C114.461 7.45886 115.171 6.9446 116.02 6.5691C116.886 6.17729 117.865 5.98138 118.959 5.98138C120.396 5.98138 121.604 6.30789 122.583 6.96092C123.579 7.59763 124.338 8.43841 124.861 9.48326C125.383 10.5118 125.644 11.6383 125.644 12.8627V14.1851H113.767V11.9566H123.269L121.996 12.9851C121.996 12.1852 121.881 11.4995 121.653 10.9281C121.424 10.3567 121.081 9.92406 120.624 9.63019C120.183 9.32 119.628 9.16491 118.959 9.16491C118.273 9.16491 117.694 9.32 117.22 9.63019C116.747 9.94038 116.388 10.3975 116.143 11.0016C115.898 11.5893 115.776 12.3158 115.776 13.1811C115.776 13.981 115.89 14.683 116.118 15.2871C116.347 15.8748 116.706 16.3319 117.196 16.6585C117.686 16.985 118.322 17.1482 119.106 17.1482C119.824 17.1482 120.412 17.0095 120.869 16.7319C121.326 16.4544 121.636 16.1115 121.8 15.7034H125.4C125.204 16.6013 124.82 17.4013 124.249 18.1033C123.677 18.8053 122.959 19.3522 122.094 19.744C121.228 20.1359 120.232 20.3318 119.106 20.3318Z" fill="#252C32"/>
<path d="M127.715 24.0003V6.44782H130.825V12.2516L130.409 12.2272C130.474 10.8884 130.752 9.76196 131.242 8.84772C131.732 7.91715 132.393 7.2233 133.225 6.76618C134.058 6.29273 134.997 6.056 136.042 6.056C136.972 6.056 137.813 6.22742 138.564 6.57027C139.331 6.91311 139.984 7.39472 140.523 8.0151C141.078 8.61916 141.494 9.33749 141.772 10.1701C142.066 10.9864 142.213 11.8843 142.213 12.8639V13.4271C142.213 14.3903 142.074 15.2964 141.796 16.1454C141.519 16.978 141.111 17.7045 140.572 18.3249C140.05 18.9452 139.405 19.435 138.637 19.7942C137.886 20.137 137.021 20.3084 136.042 20.3084C135.029 20.3084 134.115 20.1044 133.299 19.6962C132.499 19.2717 131.854 18.635 131.364 17.7861C130.874 16.9208 130.605 15.827 130.556 14.5046L131.634 15.9739V24.0003H127.715ZM134.94 17.0269C135.609 17.0269 136.188 16.8637 136.678 16.5372C137.184 16.2107 137.576 15.7535 137.854 15.1658C138.131 14.5781 138.27 13.9006 138.27 13.1332C138.27 12.3659 138.131 11.6966 137.854 11.1252C137.576 10.5538 137.192 10.113 136.703 9.80278C136.213 9.47626 135.625 9.313 134.94 9.313C134.352 9.313 133.797 9.45177 133.274 9.72931C132.752 10.0069 132.327 10.4068 132.001 10.9293C131.691 11.4354 131.536 12.0557 131.536 12.7904V13.6965C131.536 14.3985 131.699 15.0025 132.025 15.5086C132.368 15.9984 132.801 16.3739 133.323 16.6351C133.846 16.8963 134.384 17.0269 134.94 17.0269Z" fill="#252C32"/>
<path d="M143.71 19.8676V6.44782H146.82V12.2027H146.746C146.746 10.3089 147.146 8.84772 147.946 7.81919C148.762 6.79067 149.938 6.2764 151.472 6.2764H151.987V9.65584H151.007C149.93 9.65584 149.097 9.94971 148.509 10.5374C147.922 11.1088 147.628 11.9415 147.628 13.0353V19.8676H143.71Z" fill="#252C32"/>
<path d="M159.259 20.3329C158.084 20.3329 157.039 20.1533 156.125 19.7942C155.21 19.4187 154.435 18.9126 153.798 18.2759C153.178 17.6392 152.704 16.9127 152.378 16.0964C152.051 15.2638 151.888 14.3903 151.888 13.4761V12.9128C151.888 11.9823 152.051 11.1007 152.378 10.2681C152.721 9.41912 153.21 8.6763 153.847 8.03959C154.5 7.40288 155.284 6.90495 156.198 6.54578C157.112 6.17028 158.133 5.98254 159.259 5.98254C160.418 5.98254 161.447 6.17028 162.345 6.54578C163.259 6.90495 164.034 7.40288 164.671 8.03959C165.308 8.6763 165.798 9.41912 166.14 10.2681C166.483 11.1007 166.655 11.9823 166.655 12.9128V13.4761C166.655 14.3903 166.491 15.2638 166.165 16.0964C165.838 16.9127 165.357 17.6392 164.72 18.2759C164.1 18.9126 163.332 19.4187 162.418 19.7942C161.504 20.1533 160.451 20.3329 159.259 20.3329ZM159.259 17.0269C160.026 17.0269 160.663 16.8637 161.169 16.5372C161.675 16.2107 162.059 15.7535 162.32 15.1658C162.598 14.5781 162.737 13.925 162.737 13.2067C162.737 12.4394 162.598 11.77 162.32 11.1986C162.043 10.6109 161.643 10.1456 161.12 9.80278C160.614 9.45993 159.994 9.28851 159.259 9.28851C158.541 9.28851 157.92 9.45993 157.398 9.80278C156.876 10.1456 156.476 10.6109 156.198 11.1986C155.937 11.77 155.806 12.4394 155.806 13.2067C155.806 13.925 155.937 14.5781 156.198 15.1658C156.459 15.7535 156.851 16.2107 157.373 16.5372C157.896 16.8637 158.524 17.0269 159.259 17.0269Z" fill="#252C32"/>
<path d="M174.703 20.3329C173.528 20.3329 172.483 20.1533 171.569 19.7942C170.654 19.4187 169.879 18.9126 169.242 18.2759C168.622 17.6392 168.148 16.9127 167.822 16.0964C167.495 15.2638 167.332 14.3903 167.332 13.4761V12.9128C167.332 11.9823 167.495 11.1007 167.822 10.2681C168.165 9.41912 168.655 8.6763 169.291 8.03959C169.944 7.40288 170.728 6.90495 171.642 6.54578C172.556 6.17028 173.577 5.98254 174.703 5.98254C175.862 5.98254 176.891 6.17028 177.789 6.54578C178.703 6.90495 179.479 7.40288 180.115 8.03959C180.752 8.6763 181.242 9.41912 181.585 10.2681C181.927 11.1007 182.099 11.9823 182.099 12.9128V13.4761C182.099 14.3903 181.936 15.2638 181.609 16.0964C181.283 16.9127 180.801 17.6392 180.164 18.2759C179.544 18.9126 178.777 19.4187 177.862 19.7942C176.948 20.1533 175.895 20.3329 174.703 20.3329ZM174.703 17.0269C175.471 17.0269 176.107 16.8637 176.613 16.5372C177.119 16.2107 177.503 15.7535 177.764 15.1658C178.042 14.5781 178.181 13.925 178.181 13.2067C178.181 12.4394 178.042 11.77 177.764 11.1986C177.487 10.6109 177.087 10.1456 176.564 9.80278C176.058 9.45993 175.438 9.28851 174.703 9.28851C173.985 9.28851 173.365 9.45993 172.842 9.80278C172.32 10.1456 171.92 10.6109 171.642 11.1986C171.381 11.77 171.25 12.4394 171.25 13.2067C171.25 13.925 171.381 14.5781 171.642 15.1658C171.903 15.7535 172.295 16.2107 172.818 16.5372C173.34 16.8637 173.969 17.0269 174.703 17.0269Z" fill="#252C32"/>
<path d="M183.051 19.6891V6.29688L186.877 6.29694V9.24325V11.8642C186.877 11.8642 186.877 18.53 186.877 19.6891H186.455H183.051Z" fill="#252C32"/>
<path d="M186.265 14.5236V11.8642H191.851V14.5236H186.265Z" fill="#252C32"/>
<path d="M186.265 9.24325H191.851V6.29688L186.265 6.29695V9.24325Z" fill="#252C32"/>
<mask id="mask0_1157_76379" style="mask-type:alpha" maskUnits="userSpaceOnUse" x="0" y="0" width="26" height="24">
<path d="M0.0507812 11.9072L4.04133 15.8491C5.17129 18.5462 6.13923 19.6462 9.34585 19.791H16.6456C19.6245 19.4479 20.7388 18.5479 21.8528 15.8491L25.892 11.9072C25.4493 18.1365 24.7388 21.1238 20.4902 23.1976C19.4225 23.4572 17.7409 23.5476 12.9471 23.5869C9.44089 23.6194 7.36873 23.6702 5.50129 23.1976C1.2343 21.2811 0.587591 18.1705 0.0507812 11.9072Z" fill="black"/>
<path d="M12.9936 16.2055L22.4347 6.76447V11.631L25.9386 8.1271V0H19.0768L14.9402 4.13655H19.7581L12.9936 10.901L0 3.09509L12.9936 16.2055Z" fill="black"/>
</mask>
<g mask="url(#mask0_1157_76379)">
<rect width="29.5075" height="29.5075" transform="matrix(-1 0 0 1 27.5879 -2.79004)" fill="#252C32"/>
</g>
</svg>
