<svg width="26" height="24" viewBox="0 0 26 24" fill="none" xmlns="http://www.w3.org/2000/svg">
<mask id="mask0_1973_5357" style="mask-type:alpha" maskUnits="userSpaceOnUse" x="0" y="0" width="26" height="24">
<path d="M0.0507812 11.9072L4.04133 15.8491C5.17129 18.5462 6.13923 19.6462 9.34585 19.791H16.6456C19.6245 19.4479 20.7388 18.5479 21.8528 15.8491L25.892 11.9072C25.4493 18.1365 24.7388 21.1238 20.4902 23.1976C19.4225 23.4572 17.7409 23.5476 12.9471 23.5869C9.44089 23.6194 7.36873 23.6702 5.50129 23.1976C1.2343 21.2811 0.587591 18.1705 0.0507812 11.9072Z" fill="black"/>
<path d="M12.9936 16.2055L22.4347 6.76447V11.631L25.9386 8.1271V0H19.0768L14.9402 4.13655H19.7581L12.9936 10.901L0 3.09509L12.9936 16.2055Z" fill="black"/>
</mask>
<g mask="url(#mask0_1973_5357)">
<rect width="29.5075" height="29.5075" transform="matrix(-1 0 0 1 27.5879 -2.79004)" fill="#252C32"/>
</g>
</svg>
